<svg width="16" height="16" viewBox="0 0 16 16" fill="none" xmlns="http://www.w3.org/2000/svg">
<path d="M8.59785 1.86172L10.9014 4.87916M1.50737 7.60987L14.6267 3.79612L14.0165 1.81297C13.7876 1.05022 12.9486 0.592565 12.1096 0.82139L1.81247 3.87239C1.04972 4.10122 0.592069 4.94024 0.820894 5.77927L1.50737 7.60987ZM1.50737 7.60987L15.2369 7.6099V13.7119C15.2369 14.1165 15.0762 14.5045 14.7901 14.7906C14.504 15.0767 14.116 15.2374 13.7114 15.2374H3.0329C2.62832 15.2374 2.2403 15.0767 1.95421 14.7906C1.66813 14.5045 1.5074 14.1165 1.5074 13.7119L1.50737 7.60987ZM3.93271 3.2442L6.29724 6.21816" stroke="#AAA99B" stroke-width="1.52556" stroke-linecap="round"/>
</svg>
