<svg width="14" height="17" viewBox="0 0 14 17" fill="none" xmlns="http://www.w3.org/2000/svg">
<path d="M4.63515 8.49874L6.18018 10.044L9.27023 6.95351M13.1328 9.2717C13.1328 13.1348 10.429 15.0663 7.21535 16.1866C7.04707 16.2436 6.86427 16.2409 6.69776 16.1789C3.47639 15.0663 0.77259 13.1348 0.77259 9.2717V3.8634C0.77259 3.65849 0.85398 3.46197 0.998854 3.31708C1.14373 3.17218 1.34022 3.09078 1.5451 3.09078C3.09013 3.09078 5.02141 2.16364 6.36558 0.98927C6.52924 0.849425 6.73743 0.77259 6.95269 0.77259C7.16795 0.77259 7.37614 0.849425 7.5398 0.98927C8.8917 2.17137 10.8153 3.09078 12.3603 3.09078C12.5652 3.09078 12.7617 3.17218 12.9065 3.31708C13.0514 3.46197 13.1328 3.65849 13.1328 3.8634V9.2717Z" stroke="#AAA99B" stroke-width="1.54518" stroke-linecap="round"/>
</svg>
